<svg width="20" height="20" viewBox="0 0 20 20" fill="none" xmlns="http://www.w3.org/2000/svg">
<path fill-rule="evenodd" clip-rule="evenodd" d="M10 0C15.523 0 20 4.477 20 10C20 15.523 15.523 20 10 20C4.477 20 0 15.523 0 10C0 4.477 4.477 0 10 0ZM11 10H9C8.73478 10 8.48043 10.1054 8.29289 10.2929C8.10536 10.4804 8 10.7348 8 11C8 11.2652 8.10536 11.5196 8.29289 11.7071C8.48043 11.8946 8.73478 12 9 12H11C11.2652 12 11.5196 11.8946 11.7071 11.7071C11.8946 11.5196 12 11.2652 12 11C12 10.7348 11.8946 10.4804 11.7071 10.2929C11.5196 10.1054 11.2652 10 11 10ZM6.5 5C6.10218 5 5.72064 5.15804 5.43934 5.43934C5.15804 5.72064 5 6.10218 5 6.5C5 6.89782 5.15804 7.27936 5.43934 7.56066C5.72064 7.84196 6.10218 8 6.5 8C6.89782 8 7.27936 7.84196 7.56066 7.56066C7.84196 7.27936 8 6.89782 8 6.5C8 6.10218 7.84196 5.72064 7.56066 5.43934C7.27936 5.15804 6.89782 5 6.5 5ZM13.5 5C13.1022 5 12.7206 5.15804 12.4393 5.43934C12.158 5.72064 12 6.10218 12 6.5C12 6.89782 12.158 7.27936 12.4393 7.56066C12.7206 7.84196 13.1022 8 13.5 8C13.8978 8 14.2794 7.84196 14.5607 7.56066C14.842 7.27936 15 6.89782 15 6.5C15 6.10218 14.842 5.72064 14.5607 5.43934C14.2794 5.15804 13.8978 5 13.5 5Z" fill="#00FFE1"/>
</svg>
