<svg width="174" height="40" viewBox="0 0 174 40" fill="none" xmlns="http://www.w3.org/2000/svg">
<g id="Group">
<g id="Group_2">
<path id="Vector" d="M47.9782 38.9179V26.4776C47.9782 23.5411 46.8364 21.8684 44.3474 21.8684C41.7784 21.8684 40.5546 23.3777 40.5546 26.1921V38.9179H33.7841V8.73438H40.5546V18.4423C41.533 16.6071 43.7357 15.5058 46.4285 15.5058C51.6081 15.5058 54.7487 18.7685 54.7487 24.6828V38.9179H47.9782Z" fill="#FFB0C2"/>
</g>
<g id="Group_3">
<path id="Vector_2" d="M73.9957 19.5786C73.9957 17.3298 72.1727 15.5068 69.9237 15.5068C67.6752 15.5068 65.8519 17.3298 65.8519 19.5786C65.8519 21.8273 67.6752 23.6506 69.9237 23.6506C72.1727 23.6506 73.9957 21.8273 73.9957 19.5786Z" fill="#FFB0C2"/>
</g>
<g id="Group_4">
<path id="Vector_3" d="M58.3796 16.2561H64.7425V38.8931H58.3796V16.2561Z" fill="#FFB0C2"/>
</g>
<g id="Group_5">
<path id="Vector_4" d="M129.28 38.9039V26.7086C129.28 23.1595 128.138 21.8543 125.813 21.8543C123.244 21.8543 122.061 23.4049 122.061 26.3818V38.9039H115.29V26.4231C115.29 23.4857 114.229 21.8543 111.904 21.8543C109.253 21.8543 108.07 23.5674 108.07 26.7086V38.9039H101.299V16.2668H107.622V18.6727H107.703C108.886 16.5518 111.048 15.4917 113.944 15.4917C116.881 15.4917 119.043 16.9597 120.471 19.5296C122.102 16.9597 124.549 15.4917 127.649 15.4917C132.706 15.4917 136.051 18.5916 136.051 24.9138V38.9039H129.28Z" fill="#FFF8F8"/>
</g>
<g id="Group_6">
<path id="Vector_5" d="M146.465 16.2561H139.695V38.8931H146.465V16.2561Z" fill="#FFF8F8"/>
</g>
<g id="Group_7">
<path id="Vector_6" d="M167.229 38.9039V36.4569H167.148C166.169 38.4558 163.476 39.6793 160.499 39.6793C153.81 39.6793 149.16 34.4171 149.16 27.5648C149.16 20.8754 154.014 15.4917 160.499 15.4917C163.272 15.4917 165.843 16.593 167.148 18.6727H167.229V16.2668H174V38.9039H167.229ZM167.229 27.5648C167.229 24.3832 164.659 21.8139 161.478 21.8139C158.378 21.8139 155.931 24.3832 155.931 27.6465C155.931 30.7869 158.419 33.357 161.56 33.357C164.741 33.357 167.229 30.8281 167.229 27.5648Z" fill="#FFF8F8"/>
</g>
<g id="Group_8">
<path id="Vector_7" d="M147.152 10.6553C147.152 8.40652 145.329 6.5835 143.081 6.5835C140.832 6.5835 139.009 8.40652 139.009 10.6553C139.009 12.904 140.832 14.7271 143.081 14.7271C145.329 14.7271 147.152 12.904 147.152 10.6553Z" fill="#FFF8F8"/>
</g>
<g id="Group_9">
<path id="Vector_8" d="M86.5809 15.5771C79.9353 15.5771 74.5485 20.9643 74.5485 27.6099C74.5485 34.2552 79.9353 39.6426 86.5809 39.6426C93.2262 39.6426 98.6136 34.2552 98.6136 27.6099C98.6136 20.9643 93.2262 15.5771 86.5809 15.5771ZM86.5809 33.3201C83.427 33.3201 80.8704 30.7635 80.8704 27.6099C80.8704 24.456 83.427 21.8994 86.5809 21.8994C89.7345 21.8994 92.2914 24.456 92.2914 27.6099C92.2914 30.7635 89.7345 33.3201 86.5809 33.3201Z" fill="#FFB0C2"/>
</g>
<g id="Group_10">
<path id="Vector_9" d="M22.5887 27.4721C21.2657 29.9699 18.6438 31.6737 15.6203 31.6737C11.2669 31.6737 7.7379 28.1444 7.7379 23.7908C7.7379 19.4371 11.2669 15.9078 15.6203 15.9078C18.6438 15.9078 21.2657 17.6116 22.5887 20.1094H30.7944C29.1481 13.2467 22.9884 8.1394 15.6203 8.1394C6.99331 8.1394 0 15.1333 0 23.7602C0 32.3875 6.99331 39.3808 15.6203 39.3808C22.9661 39.3808 29.1105 34.3038 30.7789 27.4721H22.5887Z" fill="#FFB0C2"/>
</g>
<g id="Group_11">
<path id="Vector_10" d="M27.97 14.2345C29.7317 12.7974 30.8567 10.6091 30.8567 8.15825C30.8567 3.82951 27.3478 0.320557 23.0193 0.320557C18.6906 0.320557 15.1816 3.82951 15.1816 8.15825V8.16418C15.3272 8.16023 15.4728 8.15797 15.6192 8.15797C20.6502 8.15797 25.1177 10.5393 27.97 14.2345Z" fill="#CC91F0"/>
</g>
<g id="Group_12">
<path id="Vector_11" d="M23.0249 16.0049C24.9026 16.0048 26.6261 15.3448 27.9756 14.2438C25.1235 10.5486 20.656 8.16724 15.6249 8.16734C15.4786 8.16713 15.3329 8.16935 15.1878 8.17338C15.1908 12.4992 18.6986 16.0048 23.0249 16.0049Z" fill="#CC66B8"/>
</g>
</g>
</svg>
