<svg xmlns="http://www.w3.org/2000/svg" width="430" height="430" fill="none" viewBox="0 0 430 430"><path stroke="#fff" stroke-linecap="round" stroke-linejoin="round" stroke-width="12" d="M192.08 357.2c7 1.35 14.2 2.04 21.59 2.04h35.61c5.81 0 11.5-.44 17.05-1.26M102.81 210.93H83.88s-25.65-.87-25.65-27.57c0-23.96 33.26-23.11 33.26-2.24 0 17.4-22.86 16.95-22.86 16.95H44m235.89-92.21c14.78-10.44 32.96-11.46 50.73-9.67-23.32 18.19-21.83 50.02-21.83 50.02 23.85 14.48 42 37.38 50.3 64.57h7.62c10.63 0 19.25 8.63 19.25 19.25v18.96c0 10.62-8.62 19.25-19.25 19.25h-5.07c-4.66 22.14-15.72 41.95-31.16 57.39-7.93 7.93-17 14.71-26.99 20.03v37.84h-22.74c-7.96 0-14.41-6.45-14.41-14.39v-25.26m-74.25 0v39.65h-22.74c-7.96 0-14.41-6.45-14.41-14.39v-26c-33.6-20.03-56.08-56.72-56.08-98.67 0-31.71 12.85-60.41 33.64-81.2 15.96-15.97 36.61-27.25 59.72-31.61"/><path stroke="#3080e8" stroke-width="12" d="M229.66 46c-28.17 0-51 22.83-51 51s22.83 51 51 51 51-22.83 51-51-22.84-51-51-51Z"/><path stroke="#fff" stroke-linecap="round" stroke-linejoin="round" stroke-width="12" d="M193.98 159.99s7.09-3.51 34.59-3.5 37.03 3.5 37.03 3.5"/><path fill="#fff" d="M303.41 177.75c-7.52 0-13.63 6.1-13.63 13.63s6.1 13.63 13.63 13.63 13.63-6.1 13.63-13.63-6.11-13.63-13.63-13.63"/></svg>