<svg width="28" height="32" viewBox="0 0 28 32" fill="none" xmlns="http://www.w3.org/2000/svg">
<path opacity="0.64" d="M24.0899 6.25666C22.7732 4.54338 20.464 2.5836 17.6465 1.36331C17.6282 1.35418 17.61 1.34657 17.5932 1.33896C17.5826 1.3344 17.575 1.32983 17.5643 1.32679C17.4821 1.29027 17.3984 1.25528 17.3162 1.2218C17.3162 1.2218 17.3086 1.21572 17.304 1.2142C17.2994 1.2142 17.2949 1.21115 17.2903 1.20963C17.2873 1.20963 17.2842 1.20659 17.2812 1.20507C16.5094 0.893145 15.6996 0.637523 14.8655 0.456457C14.8624 0.456457 14.8594 0.456457 14.8548 0.456457C14.0161 0.273869 13.1485 0.168881 12.2656 0.162795H12.258C11.092 0.152144 9.89711 0.310387 8.69459 0.681648C2.16142 2.69468 0.222168 8.27121 0.222168 11.9108C0.222168 14.7379 1.28312 17.1754 1.87677 18.4733C2.04878 18.8491 2.18121 19.1276 2.23905 19.2949C2.47803 19.9903 2.67439 21.0858 2.70027 22.1463C2.70331 22.2285 2.70484 22.3122 2.70484 22.3944V25.2336C2.70484 25.6718 2.80834 26.4995 4.09915 26.4995C4.34422 26.4995 4.54514 26.46 4.70802 26.393C4.73237 26.3824 4.7552 26.3732 4.77804 26.3611C4.85415 26.3246 4.91808 26.2835 4.97744 26.2348C4.99571 26.2196 5.01397 26.2044 5.03072 26.1891C5.11596 26.1085 5.18294 26.0172 5.23469 25.9198C5.24382 25.9046 5.25143 25.8879 5.25904 25.8711C5.27579 25.8361 5.29253 25.8011 5.30471 25.7646C5.32298 25.7175 5.3382 25.6688 5.35038 25.6216C5.35951 25.5881 5.3656 25.5546 5.37321 25.5227C5.38082 25.4892 5.38691 25.4573 5.38995 25.4253C5.39452 25.3934 5.39908 25.3629 5.40213 25.3325C5.41431 25.2123 5.41583 25.1058 5.41583 25.0267V23.6314C5.41583 23.607 5.41583 23.5827 5.41583 23.5584C5.47215 22.4628 6.80557 23.5234 7.22265 23.9403C7.63973 24.3572 7.8163 24.5869 7.8163 25.2564V28.1474C7.8163 28.9995 8.15118 29.5427 9.21061 29.5427C10.27 29.5427 10.4755 28.5871 10.4755 28.1991V26.8297C10.4755 26.7369 10.4755 26.6441 10.4892 26.5558C10.5303 26.2074 10.7008 25.9274 11.3812 25.9274C12.2336 25.9274 12.2078 26.7278 12.2078 27.5022V30.2395C12.2078 30.7554 12.5959 31.7854 13.8715 31.7854C15.1471 31.7854 15.3343 30.833 15.3343 30.2137V27.5038C15.3343 27.2451 15.3343 26.7552 15.8762 26.7552C16.4181 26.7552 16.5475 27.2451 16.5475 27.6072V28.8717C16.5475 29.2338 16.8276 29.6203 17.4258 29.6203C18.024 29.6203 18.0727 29.2079 18.0727 28.9493V27.5038C18.0727 26.9606 18.4852 26.4189 18.8993 26.4189C20.2692 26.2378 22.8782 25.3355 23.239 23.3469C23.6012 21.3597 22.8006 19.861 22.2846 18.8293C21.767 17.7962 20.528 15.523 21.8188 14.9554C23.1096 14.3879 23.9529 16.057 24.4019 16.9685C24.717 17.609 25.0823 18.1325 26.0032 18.0016C26.9242 17.8723 27.5269 16.9441 27.5269 14.2844C27.5269 11.6247 25.7977 8.46901 24.0914 6.25361L24.0899 6.25666ZM14.7818 3.91497C15.6403 3.05681 17.1594 3.18918 18.1793 4.20711C18.301 4.32884 18.4091 4.45817 18.505 4.59054C19.2159 5.57804 19.225 6.84702 18.4715 7.60172C17.849 8.22252 16.8763 8.32446 16.001 7.94407C15.6707 7.80104 15.3526 7.58802 15.0756 7.30958C14.0572 6.29165 13.9248 4.77161 14.7833 3.91345L14.7818 3.91497ZM5.58479 5.4974C6.4433 4.63923 7.96243 4.77161 8.98228 5.78954C9.52722 6.33426 9.81796 7.022 9.84079 7.67628C9.85906 8.24534 9.67487 8.78702 9.27606 9.18567C8.53324 9.92819 7.28963 9.92819 6.30782 9.25109C6.15865 9.14763 6.01404 9.02742 5.87857 8.89353C4.86023 7.8756 4.72933 6.35556 5.58631 5.4974H5.58479ZM9.12841 18.239C8.45409 18.913 7.37182 18.9769 6.44482 18.4779C6.19062 18.3424 5.95011 18.1644 5.73244 17.9484C5.66699 17.8829 5.6061 17.816 5.54826 17.7475C5.49042 17.679 5.43714 17.609 5.38691 17.5375C4.69584 16.5531 4.69127 15.3008 5.43866 14.5537C5.95316 14.0395 6.70359 13.8797 7.44337 14.0562C7.47533 14.0623 7.50577 14.0699 7.53622 14.079C7.62907 14.1018 7.72192 14.1338 7.81325 14.1703C7.87414 14.1931 7.93351 14.219 7.99439 14.2479C8.01266 14.257 8.03245 14.2646 8.05071 14.2753C8.07811 14.289 8.10551 14.3012 8.13139 14.3179C8.38102 14.4518 8.62001 14.6283 8.83615 14.8444C8.88334 14.8915 8.92901 14.9402 8.97315 14.9904C9.86667 16.0038 9.94734 17.4249 9.12994 18.2405L9.12841 18.239Z" fill="#A06464"/>
<path d="M15.0741 7.30957C15.0376 7.27305 15.0025 7.23653 14.9691 7.20002C14.9538 7.18328 14.9371 7.16502 14.9234 7.14676C14.8899 7.11024 14.861 7.07373 14.8321 7.03873C14.7971 6.9946 14.7636 6.95048 14.7301 6.90331C14.7301 6.89875 14.724 6.89418 14.7209 6.88962C14.689 6.84397 14.657 6.79528 14.6281 6.74811C14.5931 6.69181 14.5596 6.63399 14.5307 6.57618C14.5078 6.53205 14.485 6.48945 14.4652 6.4438C14.4409 6.39359 14.4196 6.34033 14.3982 6.2886C14.3785 6.23991 14.3602 6.1897 14.345 6.13949C14.345 6.13644 14.345 6.13492 14.3419 6.13188C13.1835 6.73442 11.5457 7.11024 9.83933 7.67627C9.8576 8.24533 9.67341 8.78701 9.2746 9.18566C8.53178 9.92818 7.28817 9.92818 6.30636 9.25108C3.3366 11.0207 1.5313 13.5647 1.87531 18.4733C2.04732 18.8491 2.17975 19.1276 2.23759 19.2949C2.47657 19.9903 2.67293 21.0858 2.69881 22.1463C2.61813 15.6751 4.09464 11.8469 8.33086 10.3618C10.9277 9.45193 13.9264 8.87678 15.998 7.94406C15.6677 7.80103 15.3496 7.58802 15.0726 7.30957H15.0741ZM14.8656 0.457968C14.8656 0.457968 14.8595 0.457968 14.8549 0.457968C14.0162 0.275381 13.1485 0.170393 12.2657 0.164307C12.6736 0.185609 15.7271 0.451882 15.998 3.35959C16.7348 3.2896 17.5507 3.58174 18.1778 4.20862C18.2996 4.33035 18.4077 4.45968 18.5035 4.59206C18.2402 1.90041 16.3223 0.861183 14.864 0.45949L14.8656 0.457968Z" fill="url(#paint0_linear_11892_44393)"/>
<path d="M17.3162 1.22329C17.3162 1.22329 17.301 1.21416 17.2918 1.21112C17.2888 1.21112 17.2857 1.20808 17.2827 1.20656C16.511 0.894635 15.7012 0.639013 14.867 0.457947C16.3253 0.861161 18.2432 1.89887 18.5065 4.59051C19.2174 5.57801 19.2265 6.84699 18.473 7.60169C17.8505 8.22248 16.8778 8.32443 16.0026 7.94404C13.9309 8.87676 10.9322 9.45191 8.33536 10.3618C4.09914 11.8468 2.62263 15.6736 2.70331 22.1478C2.70635 22.2285 2.70788 22.3122 2.70788 22.3943V25.2336C2.70788 25.6718 2.81138 26.4995 4.10219 26.4995C5.39299 26.4995 5.41887 25.4146 5.41887 25.0282V23.6329C5.41887 23.6085 5.41887 23.5842 5.41887 23.5598C5.428 21.5346 5.82529 19.8609 6.44634 18.4778C6.19213 18.3424 5.95163 18.1644 5.73396 17.9483C4.71562 16.9304 4.58472 15.4088 5.4417 14.5522C6.30021 13.694 7.81934 13.8249 8.8392 14.8428C8.88638 14.89 8.93205 14.9387 8.97619 14.9889C10.9215 13.1995 13.0922 12.4494 13.8761 12.1527C15.4211 11.5669 20.3225 9.84599 20.3925 6.19728C20.4564 2.77377 17.6648 1.38154 17.3192 1.22177L17.3162 1.22329Z" fill="url(#paint1_linear_11892_44393)"/>
<path d="M14.7818 3.91497C14.2186 4.47794 14.0816 5.32698 14.3434 6.1334C13.1851 6.73594 11.5472 7.11177 9.84085 7.67779C9.81954 7.02504 9.52728 6.33577 8.98234 5.79105C7.96401 4.77313 6.44335 4.64075 5.58485 5.49891C4.72786 6.35707 4.85877 7.87559 5.8771 8.89504C6.01258 9.03046 6.15718 9.15067 6.30636 9.25261C3.33659 11.0222 1.5313 13.5662 1.87531 18.4748C1.28166 17.1769 0.220703 14.7378 0.220703 11.9123C0.222225 8.2712 2.16148 2.69467 8.69617 0.680122C9.89869 0.308861 11.0951 0.150618 12.2596 0.161269H12.2672C12.6751 0.182571 15.7286 0.448844 15.9996 3.35655C15.5399 3.40068 15.1121 3.58326 14.7818 3.91344V3.91497Z" fill="url(#paint2_linear_11892_44393)"/>
<path d="M22.4384 7.34151C22.1797 11.395 19.6681 12.9439 17.2813 14.4411C14.9706 15.8927 10.7542 19.5703 10.4909 26.5589C10.4818 26.7856 10.4772 27.0153 10.4772 27.2466V28.2021C10.4772 28.5886 10.2717 29.5457 9.21226 29.5457C8.15283 29.5457 7.81795 29.0025 7.81795 28.1504V25.2594C7.81795 24.5884 7.65051 24.3678 7.2243 23.9433C6.79809 23.5188 5.4738 22.4659 5.41748 23.5614C5.42661 21.5362 5.8239 19.8625 6.44495 18.4794C7.37195 18.9784 8.45574 18.9145 9.12854 18.2405C9.94595 17.4249 9.86527 16.0038 8.97176 14.9904C10.9171 13.2011 13.0877 12.4509 13.8716 12.1542C15.4166 11.5684 20.3181 9.84753 20.3881 6.19882C20.452 2.7753 17.6603 1.38307 17.3148 1.22331C17.3148 1.22331 17.3072 1.21722 17.3026 1.2157C17.3422 1.23091 17.4335 1.26743 17.5629 1.32677C17.5736 1.32982 17.5812 1.33438 17.5918 1.33894C17.6086 1.34655 17.6268 1.35416 17.6451 1.36329C18.8568 1.91866 22.6546 3.93169 22.4369 7.34151H22.4384Z" fill="url(#paint3_linear_11892_44393)"/>
<path d="M24.4522 9.15217C24.2208 11.8469 23.4886 13.6332 22.6895 14.9006C22.4262 14.8154 22.1339 14.8185 21.8173 14.9585C21.1962 15.2308 21.1612 15.8973 21.3485 16.6322C21.2038 16.7919 21.0668 16.938 20.939 17.0765C19.8674 18.2435 18.2676 23.0836 18.0895 27.3135C18.0773 27.5707 18.0727 27.8248 18.0727 28.0758V28.9538C18.0727 29.2109 18.0255 29.6248 17.4258 29.6248C16.8261 29.6248 16.5475 29.2383 16.5475 28.8762V27.6118C16.5475 27.2496 16.4181 26.7597 15.8762 26.7597C15.3343 26.7597 15.3343 27.2496 15.3343 27.5083V30.2182C15.3343 30.839 15.1486 31.79 13.8715 31.79C12.5944 31.79 12.2078 30.7599 12.2078 30.2441V27.5068C12.2078 26.7323 12.2337 25.932 11.3813 25.932C10.7008 25.932 10.5304 26.2119 10.4893 26.5589C10.7511 19.5718 14.969 15.8927 17.2797 14.4411C19.6649 12.9424 22.1765 11.3949 22.4368 7.3415C22.4946 6.43922 22.2709 5.63431 21.8888 4.93135C20.8263 2.96853 18.537 1.76954 17.645 1.36328C17.6587 1.36785 17.6694 1.37241 17.6831 1.3785C17.7287 1.39828 17.7896 1.42414 17.8596 1.4561C17.8596 1.4561 17.8627 1.4561 17.8657 1.45914C17.8794 1.46523 17.8931 1.47131 17.9083 1.47892C17.9129 1.47892 17.9159 1.48196 17.9205 1.48348C17.954 1.4987 17.989 1.51392 18.0255 1.53065C18.0712 1.55196 18.1154 1.57326 18.1595 1.59456C18.1595 1.59456 18.1625 1.59456 18.1641 1.59456C18.1778 1.60065 18.1899 1.60673 18.2052 1.61282C18.2493 1.63412 18.2919 1.65694 18.3361 1.67672C18.3589 1.6889 18.3817 1.69955 18.4061 1.71172C18.4944 1.75584 18.5796 1.79997 18.6664 1.8441C18.6801 1.8517 18.6907 1.85931 18.7044 1.86388C18.8962 1.96278 19.1078 2.07537 19.33 2.20471C20.1033 2.64292 21.0273 3.24089 21.8766 3.98189C21.8827 3.98646 21.8873 3.99102 21.8919 3.99559C23.3806 5.29957 24.6364 7.0448 24.4552 9.15064L24.4522 9.15217Z" fill="url(#paint4_linear_11892_44393)"/>
<path d="M24.09 6.25665C23.5466 5.55065 22.8357 4.80356 21.9879 4.08234L21.9909 4.08842C23.4324 5.38175 24.6289 7.09655 24.4523 9.15219C24.2209 11.8469 23.4888 13.6332 22.6896 14.9007C23.4994 15.1654 24.0626 16.2838 24.4005 16.973C24.7156 17.6136 25.081 18.137 26.0019 18.0062C26.9228 17.8768 27.5256 16.9487 27.5256 14.289C27.5256 11.6293 25.7964 8.47357 24.09 6.25817V6.25665ZM21.3486 16.6307C21.204 16.7904 21.067 16.9365 20.9391 17.075C19.8675 18.242 18.2677 23.0821 18.0896 27.312C18.1703 26.8419 18.5341 26.4204 18.8979 26.4204C20.2678 26.2393 22.8768 25.3371 23.2376 23.3484C23.5999 21.3612 22.7992 19.8625 22.2832 18.8309C22.0153 18.2937 21.5495 17.4234 21.3486 16.6307Z" fill="url(#paint5_linear_11892_44393)"/>
<defs>
<linearGradient id="paint0_linear_11892_44393" x1="1.83421" y1="11.1546" x2="18.5051" y2="11.1546" gradientUnits="userSpaceOnUse">
<stop stop-color="#034ADD"/>
<stop offset="0.53" stop-color="#0CABDB"/>
<stop offset="0.8" stop-color="#43C7D9"/>
<stop offset="1" stop-color="#66DAD9"/>
</linearGradient>
<linearGradient id="paint1_linear_11892_44393" x1="2.69874" y1="13.4795" x2="20.3895" y2="13.4795" gradientUnits="userSpaceOnUse">
<stop stop-color="#D523DD"/>
<stop offset="0.38" stop-color="#E23ADC"/>
<stop offset="1" stop-color="#F65DDB"/>
</linearGradient>
<linearGradient id="paint2_linear_11892_44393" x1="0.222225" y1="9.31804" x2="15.998" y2="9.31804" gradientUnits="userSpaceOnUse">
<stop stop-color="#03F3DD"/>
<stop offset="1" stop-color="#66DAD9"/>
</linearGradient>
<linearGradient id="paint3_linear_11892_44393" x1="5.41748" y1="15.3815" x2="22.4476" y2="15.3815" gradientUnits="userSpaceOnUse">
<stop stop-color="#9A0FDD"/>
<stop offset="1" stop-color="#8E20DB"/>
</linearGradient>
<linearGradient id="paint4_linear_11892_44393" x1="10.4908" y1="16.5759" x2="24.4704" y2="16.5759" gradientUnits="userSpaceOnUse">
<stop stop-color="#FC9100"/>
<stop offset="0.65" stop-color="#FC6348"/>
<stop offset="1" stop-color="#FD4E6B"/>
</linearGradient>
<linearGradient id="paint5_linear_11892_44393" x1="18.0896" y1="15.698" x2="27.5256" y2="15.698" gradientUnits="userSpaceOnUse">
<stop stop-color="#FCC100"/>
<stop offset="0.65" stop-color="#FCD848"/>
<stop offset="1" stop-color="#FDE46B"/>
</linearGradient>
</defs>
</svg>
