<svg width="137" height="146" viewBox="0 0 137 146" fill="none" xmlns="http://www.w3.org/2000/svg">
<path d="M133.561 76.8799H7.56203C5.14521 76.8799 3.28042 79.0067 3.59635 81.4028L3.96068 84.1659C4.22304 86.1557 5.91933 87.643 7.92636 87.643H127.955C130.701 87.643 132.631 90.3475 131.737 92.9446L130.706 95.9417C130.15 97.5563 128.631 98.6401 126.923 98.6401H14.4084C11.4423 98.6401 9.50795 101.755 10.8231 104.414L12.3057 107.411C12.9802 108.774 14.3698 109.637 15.891 109.637H116.968C120.235 109.637 122.124 113.341 120.206 115.985L118.203 118.749C117.45 119.786 116.246 120.4 114.964 120.4H32.2706C28.6766 120.4 26.906 124.772 29.4869 127.273L32.8212 130.504C33.5674 131.227 34.5657 131.631 35.6048 131.631H93.3521C96.8162 131.631 97.9666 135.009 94.8423 136.505C88.74 139.428 79.9354 142.161 70.8825 142.161C54.5623 142.161 53.3797 142.161 53.3797 142.161" stroke="#9DD6FF" stroke-width="6" stroke-linecap="round"/>
<path d="M6.1084 66.1721C6.1084 49.6831 12.6587 33.8693 24.3182 22.2098C35.9777 10.5503 51.7914 4.00002 68.2805 4.00002C84.7696 4.00002 100.583 10.5503 112.243 22.2098C123.902 33.8693 130.453 49.683 130.453 66.1721" stroke="#9DD6FF" stroke-width="7" stroke-linecap="round"/>
<path d="M52.6289 11.3403C52.6289 9.68348 51.2858 8.34033 49.6289 8.34033C47.9721 8.34033 46.6289 9.68348 46.6289 11.3403H52.6289ZM49.6289 78.6934H52.6289V11.3403H49.6289H46.6289V78.6934H49.6289Z" fill="#9DD6FF"/>
<path d="M65.0635 10.304C65.0635 8.6471 63.7203 7.30396 62.0635 7.30396C60.4066 7.30396 59.0635 8.6471 59.0635 10.304H65.0635ZM62.0635 77.6571H65.0635V10.304H62.0635H59.0635V77.6571H62.0635Z" fill="#9DD6FF"/>
<path d="M77.498 10.304C77.498 8.6471 76.1549 7.30396 74.498 7.30396C72.8412 7.30396 71.498 8.6471 71.498 10.304H77.498ZM74.498 77.6571H77.498V10.304H74.498H71.498V77.6571H74.498Z" fill="#9DD6FF"/>
<path d="M89.9326 11.3403C89.9326 9.68348 88.5895 8.34033 86.9326 8.34033C85.2758 8.34033 83.9326 9.68348 83.9326 11.3403H89.9326ZM86.9326 78.6934H89.9326V11.3403H86.9326H83.9326V78.6934H86.9326Z" fill="#9DD6FF"/>
</svg>
