<svg xmlns="http://www.w3.org/2000/svg" width="430" height="430" fill="none" viewBox="0 0 430 430"><mask id="LrsBaQY5M8a" width="330" height="268" x="20" y="57" maskUnits="userSpaceOnUse" style="mask-type:alpha"><path fill="#D9D9D9" d="M350 57.513H20V325h162.407c-17.058-20.647-27.307-47.126-27.307-76 0-65.943 53.457-119.4 119.4-119.4 28.641 0 54.927 10.084 75.5 26.896z"/></mask><g stroke="#000" stroke-linejoin="round" stroke-width="12" mask="url(#LrsBaQY5M8a)"><rect width="237" height="56" x="88" y="81" rx="28"/><rect width="237" height="56" x="34" y="137" rx="28"/><rect width="237" height="56" x="87" y="193" rx="28"/><rect width="237" height="56" x="62" y="249" rx="28"/></g><path stroke="#000" stroke-linecap="round" stroke-linejoin="round" stroke-miterlimit="10" stroke-width="12" d="M274.5 368.4c65.943 0 119.4-53.457 119.4-119.4s-53.457-119.4-119.4-119.4S155.1 183.057 155.1 249s53.457 119.4 119.4 119.4"/><path stroke="#3080e8" stroke-linecap="round" stroke-linejoin="round" stroke-miterlimit="10" stroke-width="12" d="M274.5 333.2c46.502 0 84.2-37.698 84.2-84.2s-37.698-84.2-84.2-84.2-84.2 37.698-84.2 84.2 37.698 84.2 84.2 84.2"/></svg>